<svg width="24" height="24" viewBox="0 0 24 24" fill="none" xmlns="http://www.w3.org/2000/svg">
<path d="M7 22C6.45 22 5.97933 21.8043 5.588 21.413C5.19667 21.0217 5.00067 20.5507 5 20V12C5 10.5833 5.371 9.31667 6.113 8.2C6.855 7.08333 7.81733 6.25 9 5.7V5C9 4.16667 9.29167 3.45833 9.875 2.875C10.4583 2.29167 11.1667 2 12 2C12.8333 2 13.5417 2.29167 14.125 2.875C14.7083 3.45833 15 4.16667 15 5V5.7C16.1833 6.25 17.146 7.08333 17.888 8.2C18.63 9.31667 19.0007 10.5833 19 12V20C19 20.55 18.8043 21.021 18.413 21.413C18.0217 21.805 17.5507 22.0007 17 22H7ZM15 16C15.2833 16 15.521 15.904 15.713 15.712C15.905 15.52 16.0007 15.2827 16 15V14C16 13.45 15.8043 12.9793 15.413 12.588C15.0217 12.1967 14.5507 12.0007 14 12H9C8.71667 12 8.47933 12.096 8.288 12.288C8.09667 12.48 8.00067 12.7173 8 13C7.99933 13.2827 8.09533 13.5203 8.288 13.713C8.48067 13.9057 8.718 14.0013 9 14H14V15C14 15.2833 14.096 15.521 14.288 15.713C14.48 15.905 14.7173 16.0007 15 16ZM11 5.1C11.1833 5.06667 11.35 5.04167 11.5 5.025C11.65 5.00833 11.8167 5 12 5C12.1833 5 12.35 5.00833 12.5 5.025C12.65 5.04167 12.8167 5.06667 13 5.1V5C13 4.71667 12.904 4.47933 12.712 4.288C12.52 4.09667 12.2827 4.00067 12 4C11.7173 3.99933 11.48 4.09533 11.288 4.288C11.096 4.48067 11 4.718 11 5V5.1Z" fill="black"/>
</svg>
