<svg width="16" height="16" viewBox="0 0 16 16" fill="none" xmlns="http://www.w3.org/2000/svg">
<path fill-rule="evenodd" clip-rule="evenodd" d="M9.74403 2.07199L7.81803 0.916992L5.89203 2.07199L3.65503 2.26999L2.77503 4.33599L1.08203 5.81099L1.58503 7.99999L1.08203 10.189L2.77503 11.664L3.65503 13.73L5.89203 13.928L7.81803 15.083L9.74403 13.928L11.981 13.73L12.861 11.664L14.555 10.189L14.05 7.99999L14.554 5.81099L12.86 4.33599L11.98 2.26999L9.74403 2.07199ZM5.50003 6.49999C5.50003 6.36738 5.55271 6.24021 5.64648 6.14644C5.74025 6.05267 5.86742 5.99999 6.00003 5.99999C6.13264 5.99999 6.25982 6.05267 6.35358 6.14644C6.44735 6.24021 6.50003 6.36738 6.50003 6.49999C6.50003 6.6326 6.44735 6.75978 6.35358 6.85355C6.25982 6.94731 6.13264 6.99999 6.00003 6.99999C5.86742 6.99999 5.74025 6.94731 5.64648 6.85355C5.55271 6.75978 5.50003 6.6326 5.50003 6.49999ZM6.00003 4.99999C5.60221 4.99999 5.22068 5.15803 4.93937 5.43933C4.65807 5.72064 4.50003 6.10217 4.50003 6.49999C4.50003 6.89782 4.65807 7.27935 4.93937 7.56065C5.22068 7.84196 5.60221 7.99999 6.00003 7.99999C6.39786 7.99999 6.77939 7.84196 7.06069 7.56065C7.342 7.27935 7.50003 6.89782 7.50003 6.49999C7.50003 6.10217 7.342 5.72064 7.06069 5.43933C6.77939 5.15803 6.39786 4.99999 6.00003 4.99999ZM5.85403 10.854L10.854 5.85399L10.146 5.14599L5.14603 10.146L5.85403 10.854ZM9.50003 9.99999C9.50003 9.86738 9.55271 9.74021 9.64648 9.64644C9.74025 9.55267 9.86742 9.49999 10 9.49999C10.1326 9.49999 10.2598 9.55267 10.3536 9.64644C10.4474 9.74021 10.5 9.86738 10.5 9.99999C10.5 10.1326 10.4474 10.2598 10.3536 10.3535C10.2598 10.4473 10.1326 10.5 10 10.5C9.86742 10.5 9.74025 10.4473 9.64648 10.3535C9.55271 10.2598 9.50003 10.1326 9.50003 9.99999ZM10 8.49999C9.60221 8.49999 9.22068 8.65803 8.93937 8.93933C8.65807 9.22064 8.50003 9.60217 8.50003 9.99999C8.50003 10.3978 8.65807 10.7793 8.93937 11.0607C9.22068 11.342 9.60221 11.5 10 11.5C10.3979 11.5 10.7794 11.342 11.0607 11.0607C11.342 10.7793 11.5 10.3978 11.5 9.99999C11.5 9.60217 11.342 9.22064 11.0607 8.93933C10.7794 8.65803 10.3979 8.49999 10 8.49999Z" fill="black"/>
</svg>
