<svg width="25" height="25" viewBox="0 0 25 25" fill="none" xmlns="http://www.w3.org/2000/svg">
<path d="M19.75 3.5H5.25C4.2875 3.5 3.5 4.2875 3.5 5.25V19.75C3.5 20.7125 4.2875 21.5 5.25 21.5H19.75C20.7125 21.5 21.5 20.7125 21.5 19.75V5.25C21.5 4.2875 20.7125 3.5 19.75 3.5ZM8.85875 15.375C7.24475 15.375 5.93625 14.0668 5.93625 12.4528C5.93625 10.8388 7.24475 9.53025 8.85875 9.53025C10.4728 9.53025 11.781 10.8385 11.781 12.4528C11.781 14.067 10.4728 15.375 8.85875 15.375ZM16.267 15.375C14.653 15.375 13.3445 14.0668 13.3445 12.4528C13.3445 10.8388 14.6528 9.53025 16.267 9.53025C17.8813 9.53025 19.1893 10.8385 19.1893 12.4528C19.1895 14.0668 17.881 15.375 16.267 15.375Z" fill="black"/>
</svg>
