<svg width="24" height="24" viewBox="0 0 24 24" fill="none" xmlns="http://www.w3.org/2000/svg">
<path d="M9.9251 21.125L7.4501 16.525L2.8501 14.05L4.6251 12.3L8.2501 12.925L10.8001 10.375L2.8751 7L4.9751 4.85L14.6001 6.55L17.7001 3.45C18.0834 3.06667 18.5584 2.875 19.1251 2.875C19.6918 2.875 20.1668 3.06667 20.5501 3.45C20.9334 3.83333 21.1251 4.304 21.1251 4.862C21.1251 5.42 20.9334 5.891 20.5501 6.275L17.4251 9.4L19.1251 19L17.0001 21.125L13.6001 13.2L11.0501 15.75L11.7001 19.35L9.9251 21.125Z" fill="black"/>
</svg>
