<svg width="27" height="27" viewBox="0 0 27 27" fill="none" xmlns="http://www.w3.org/2000/svg">
<path d="M24.2284 11.1572H23.3334V11.1111H13.3334V15.5556H19.6128C18.6967 18.1428 16.2351 20 13.3334 20C9.65173 20 6.66673 17.015 6.66673 13.3333C6.66673 9.65167 9.65173 6.66667 13.3334 6.66667C15.0328 6.66667 16.579 7.30778 17.7562 8.355L20.899 5.21222C18.9145 3.36278 16.2601 2.22222 13.3334 2.22222C7.19729 2.22222 2.22229 7.19722 2.22229 13.3333C2.22229 19.4694 7.19729 24.4444 13.3334 24.4444C19.4695 24.4444 24.4445 19.4694 24.4445 13.3333C24.4445 12.5883 24.3678 11.8611 24.2284 11.1572Z" fill="#FFC107"/>
<path d="M3.50342 8.16167L7.15397 10.8389C8.14175 8.39333 10.534 6.66667 13.3334 6.66667C15.0329 6.66667 16.579 7.30778 17.7562 8.355L20.899 5.21222C18.9145 3.36278 16.2601 2.22222 13.3334 2.22222C9.06564 2.22222 5.36453 4.63167 3.50342 8.16167Z" fill="#FF3D00"/>
<path d="M13.3333 24.4444C16.2033 24.4444 18.8111 23.3461 20.7828 21.56L17.3439 18.65C16.191 19.5272 14.782 20.0015 13.3333 20C10.4433 20 7.98943 18.1572 7.06498 15.5855L3.44165 18.3772C5.28054 21.9755 9.01498 24.4444 13.3333 24.4444Z" fill="#4CAF50"/>
<path d="M24.2284 11.1572H23.3334V11.1111H13.3334V15.5556H19.6128C19.1746 16.7869 18.3852 17.8629 17.3423 18.6506L17.3439 18.6494L20.7828 21.5594C20.5395 21.7806 24.4445 18.8889 24.4445 13.3333C24.4445 12.5883 24.3678 11.8611 24.2284 11.1572Z" fill="#1976D2"/>
</svg>
