<svg width="10" height="10" viewBox="0 0 10 10" fill="none" xmlns="http://www.w3.org/2000/svg">
<path d="M4.99999 9.3042C5.20875 9.30439 5.41401 9.25067 5.59592 9.14826C5.77783 9.04584 5.93021 8.8982 6.03832 8.71962L9.41749 3.0792C9.52482 2.89568 9.58209 2.6872 9.58356 2.4746C9.58503 2.262 9.53065 2.05275 9.42586 1.86776C9.32107 1.68278 9.16955 1.52856 8.98644 1.42051C8.80334 1.31247 8.59508 1.2544 8.38249 1.25211L1.62207 1.25211C1.40967 1.25361 1.20138 1.31081 1.01799 1.41798C0.834608 1.52516 0.682547 1.67857 0.576995 1.8629C0.471444 2.04722 0.416095 2.25601 0.416474 2.46842C0.416853 2.68083 0.472947 2.88942 0.579156 3.07337L3.96082 8.71753C4.06905 8.89635 4.22153 9.04426 4.40354 9.14702C4.58555 9.24978 4.79097 9.30391 4.99999 9.3042Z" fill="#4B4B4B"/>
</svg>
